<?xml version="1.0" standalone="no"?><!DOCTYPE svg PUBLIC "-//W3C//DTD SVG 1.1//EN" "http://www.w3.org/Graphics/SVG/1.1/DTD/svg11.dtd"><svg t="1733463521290" class="icon" viewBox="0 0 1025 1024" version="1.1" xmlns="http://www.w3.org/2000/svg" p-id="9117" xmlns:xlink="http://www.w3.org/1999/xlink" width="50.048828125" height="50"><path d="M410.346394 409.599898a51.199987 51.199987 0 0 0-51.199988 51.199987v307.199923a51.199987 51.199987 0 0 0 102.399975 0V460.799885a51.199987 51.199987 0 0 0-51.199987-51.199987zM615.146342 409.599898a51.199987 51.199987 0 0 0-51.199987 51.199987v307.199923a51.199987 51.199987 0 0 0 102.399975 0V460.799885a51.199987 51.199987 0 0 0-51.199988-51.199987z" fill="#000000" p-id="9118"></path><path d="M1024.74624 247.295938A52.991987 52.991987 0 0 0 970.730254 204.799949H794.346298a25.599994 25.599994 0 0 1-25.599994-25.599994V102.399974a102.399974 102.399974 0 0 0-102.399974-102.399974H359.146406a102.399974 102.399974 0 0 0-102.399974 102.399974v76.799981a25.599994 25.599994 0 0 1-25.599994 25.599994H54.762482A52.991987 52.991987 0 0 0 0.746496 247.295938 51.199987 51.199987 0 0 0 51.946483 307.199923h27.391993a25.599994 25.599994 0 0 1 25.599994 23.807994l42.495989 597.759851a102.399974 102.399974 0 0 0 102.399975 95.231976h526.079868a102.399974 102.399974 0 0 0 102.399975-95.231976l42.495989-597.759851a25.599994 25.599994 0 0 1 25.599994-23.807994H973.546253a51.199987 51.199987 0 0 0 51.199987-59.903985zM359.146406 127.999968a25.599994 25.599994 0 0 1 25.599994-25.599994h255.999936a25.599994 25.599994 0 0 1 25.599994 25.599994v51.199987a25.599994 25.599994 0 0 1-25.599994 25.599994H384.7464a25.599994 25.599994 0 0 1-25.599994-25.599994z m418.559896 769.791808a25.599994 25.599994 0 0 1-25.599994 23.807994h-478.71988a25.599994 25.599994 0 0 1-25.599994-23.807994l-40.19199-563.19986a25.599994 25.599994 0 0 1 25.599994-27.391993h559.35986a25.599994 25.599994 0 0 1 25.599994 27.391993z" fill="#000000" p-id="9119"></path></svg>