<?xml version="1.0" standalone="no"?><!DOCTYPE svg PUBLIC "-//W3C//DTD SVG 1.1//EN" "http://www.w3.org/Graphics/SVG/1.1/DTD/svg11.dtd"><svg t="1733214252198" class="icon" viewBox="0 0 1025 1024" version="1.1" xmlns="http://www.w3.org/2000/svg" p-id="4854" width="45" height="45" xmlns:xlink="http://www.w3.org/1999/xlink"><path d="M235.52 573.44l112.64-102.4-174.08-174.08c-30.72-30.72-30.72-81.92 0-112.64l10.24-10.24c30.72-30.72 81.92-20.48 112.64 10.24l174.08 163.84 102.4-92.16L389.12 81.92c0-10.24-10.24-20.48-20.48-20.48C327.68 20.48 276.48 0 215.04 10.24 153.6 10.24 102.4 40.96 71.68 81.92 61.44 81.92 61.44 92.16 51.2 102.4c-30.72 40.96-51.2 92.16-51.2 153.6 0 51.2 30.72 102.4 71.68 143.36l163.84 174.08zM972.8 71.68C942.08 40.96 890.88 40.96 860.16 71.68L71.68 849.92c-20.48 30.72-20.48 81.92 0 112.64 0 10.24 10.24 10.24 10.24 10.24 10.24 10.24 30.72 10.24 40.96 10.24h10.24c20.48 0 30.72-10.24 51.2-30.72l788.48-788.48c20.48-20.48 20.48-61.44 0-92.16zM962.56 634.88L788.48 450.56l-102.4 102.4 163.84 174.08 10.24 10.24c30.72 30.72 20.48 81.92-10.24 112.64l-10.24 10.24c-20.48 20.48-40.96 20.48-61.44 20.48-20.48 0-40.96-10.24-51.2-30.72L552.96 675.84l-102.4 102.4 184.32 174.08c40.96 40.96 102.4 61.44 163.84 61.44 61.44 0 112.64-20.48 163.84-61.44l10.24-10.24c71.68-81.92 71.68-225.28-10.24-307.2z" p-id="4855" fill="#000000"></path></svg>